<?xml version="1.0" standalone="no"?><!DOCTYPE svg PUBLIC "-//W3C//DTD SVG 1.1//EN" "http://www.w3.org/Graphics/SVG/1.1/DTD/svg11.dtd"><svg t="1752901566075" class="icon" viewBox="0 0 1024 1024" version="1.1" xmlns="http://www.w3.org/2000/svg" p-id="16745" xmlns:xlink="http://www.w3.org/1999/xlink" width="200" height="200"><path d="M684.032 454.144c1.024 0.853333 1.877333 1.365333 2.730667 2.048 2.901333 2.218667 5.973333 4.266667 8.874666 6.656 3.413333 2.730667 5.802667 6.314667 7.850667 10.069333 3.413333 6.314667 3.413333 12.629333 0 18.944-1.536 2.730667-2.048 2.56 0.853333 5.632 15.701333 16.896 31.402667 33.621333 47.104 50.517334 20.48 22.186667 40.448 44.885333 58.538667 69.12 5.12 6.826667 10.069333 13.653333 14.677333 20.821333 5.12 8.192 8.533333 17.237333 9.898667 26.965333 1.536 12.288-0.682667 23.893333-6.144 34.816-3.754667 7.850667-8.874667 14.848-15.018667 20.821334-8.704 8.362667-17.92 15.872-28.330666 22.016-8.533333 4.949333-17.578667 7.338667-27.477334 5.973333-5.632-0.682667-11.093333-2.389333-16.384-4.608-8.192-3.754667-15.701333-8.704-22.357333-14.677333-9.045333-8.021333-17.92-16.213333-26.624-24.576-6.656-6.485333-13.312-12.970667-19.797333-19.626667a2.269867 2.269867 0 0 0-1.706667-0.682667c0.512 0.853333 1.194667 1.877333 1.706667 2.730667l25.6 37.376c6.485333 9.728 12.458667 19.968 16.725333 30.890667 2.901333 7.338667 4.437333 14.848 4.437333 22.698666 0 8.874667-2.389333 16.896-7.509333 24.234667-4.778667 6.826667-10.752 12.458667-17.066667 17.92-8.192 7.168-16.896 13.994667-26.965333 18.261333-14.336 6.144-29.013333 7.509333-43.861333 3.242667-9.898667-2.901333-18.432-8.362667-25.941334-15.189333-4.608-4.096-8.874667-8.533333-13.141333-12.970667-25.258667-27.136-48.298667-55.978667-70.314667-85.674667-10.922667-14.677333-22.016-29.354667-33.109333-44.032-0.682667-0.853333-1.365333-1.536-2.048-2.389333-1.706667 0.512-3.242667 0.853333-4.778667 1.365333-4.949333 1.194667-9.728 0.682667-14.165333-1.877333-4.949333-2.901333-9.045333-6.997333-11.946667-12.117333-2.218667-3.754667-4.096-7.850667-6.144-12.117334-0.170667 1.024-0.512 1.706667-0.512 2.389334-0.512 6.656-0.853333 13.141333-1.365333 19.797333-0.682667 7.509333-1.194667 15.018667-2.048 22.528-0.853333 6.997333-2.730667 13.653333-5.461333 20.138667-3.072 7.168-7.850667 12.970667-14.677334 16.725333-10.581333 5.973333-21.845333 9.898667-33.792 11.434667-9.557333 1.194667-19.114667 1.877333-28.842666 0.682666-9.386667-1.024-18.432-3.584-26.794667-8.192s-14.506667-11.434667-18.944-19.968c-4.608-8.874667-6.997333-18.432-8.362667-28.330666-2.901333-19.114667-2.56-38.229333-1.706666-57.344 0.682667-16.896 2.730667-33.792 4.608-50.688 2.048-18.432 4.437333-36.864 6.656-55.296 1.877333-16.554667 3.925333-32.938667 7.168-49.322667 0.682667-3.242667 1.706667-6.485333 2.56-10.069333-0.853333-0.170667-1.706667-0.512-2.730667-0.512-16.554667-1.536-32.768-5.12-48.469333-11.093334-2.389333-0.853333-4.096-1.024-6.144 1.024-6.656 6.314667-14.336 10.922667-23.210667 13.824-7.338667 2.389333-14.677333 2.730667-21.845333-0.170666-4.608-1.877333-9.216-3.925333-13.312-6.656-7.168-4.778667-14.336-10.069333-20.992-15.530667a90.282667 90.282667 0 0 1-20.309334-23.722667c-4.608-7.509333-7.509333-15.36-8.533333-24.064-0.853333-6.656 0.682667-12.970667 4.266667-18.602666 2.730667-4.266667 5.461333-8.362667 9.557333-11.605334-0.512-1.194667-1.024-2.218667-1.536-3.242666-4.949333-9.216-9.045333-18.602667-12.458667-28.330667-1.365333-3.925333-3.242667-7.68-4.096-11.776-1.706667-7.338667-3.072-14.677333-4.096-22.186667a191.829333 191.829333 0 0 1 21.333334-119.808c19.797333-36.010667 48.128-62.976 84.992-80.896 18.944-9.045333 38.741333-15.018667 59.562666-17.408 52.736-5.973333 100.010667 7.509333 141.824 39.936 2.048 1.536 3.754667 1.877333 5.973334 0.512 1.536-0.853333 3.072-1.536 4.608-2.389333 8.192-3.925333 16.384-3.925333 24.746666-0.682667 7.168 2.730667 13.482667 6.826667 19.114667 11.776 8.021333 7.168 15.018667 15.36 19.968 24.917334 3.925333 7.509333 7.68 15.189333 11.093333 22.869333 2.730667 5.973333 4.437333 12.458667 4.608 19.114667 0.170667 5.290667-1.024 10.069333-3.413333 14.677333-3.754667 6.997333-8.192 13.482667-14.506667 18.432-2.048 1.706667-2.56 3.242667-2.389333 5.973333 1.194667 11.946667 3.072 23.722667 2.730667 35.669334 0 5.461333-0.512 10.922667-0.853334 16.384v2.730666h2.389334c10.069333 0 19.968 0 30.037333 0.341334 7.168 0 14.165333 0.512 21.333333 1.024l43.861334 2.56 25.770666 1.536c15.018667 0.853333 30.037333 2.218667 45.056 4.266666 13.653333 1.877333 27.306667 3.925333 40.618667 7.850667 7.509333 2.218667 14.848 4.778667 22.016 7.68 4.608 1.877333 8.874667 4.437333 13.141333 7.338667 12.8 8.533333 19.797333 20.821333 21.333334 36.010666 2.56 26.453333-4.266667 50.346667-19.797334 72.021334-6.656 9.216-15.701333 14.165333-26.794666 15.701333-11.264 1.536-22.528 0.853333-33.621334-0.341333-8.362667-1.024-16.896-2.048-25.258666-2.901334-0.341333 0-0.682667 0-1.536 0.341334l-0.682667 0.341333zM160.085333 280.576c0.341333 98.474667 80.042667 176.469333 177.493334 175.274667 96.256-1.194667 173.909333-79.189333 173.226666-176.64-0.682667-97.28-80.042667-174.762667-177.152-173.738667-93.525333 0.853333-173.056 76.629333-173.397333 175.274667l-0.170667-0.170667z m624.469334 329.898667c-1.536-2.048-2.730667-3.584-4.096-5.290667-11.264-12.970667-22.186667-25.941333-33.621334-38.570667-18.090667-19.797333-36.522667-39.082667-53.418666-59.733333-0.341333-0.512-0.512-1.024-0.853334-1.536-0.853333 0.682667-1.365333 0.853333-1.706666 1.194667-9.045333 9.216-18.090667 18.432-27.136 27.477333-7.850667 7.850667-15.36 15.872-23.722667 23.04-22.016 19.114667-44.202667 37.717333-66.389333 56.490667-25.429333 21.674667-53.248 40.277333-80.725334 59.050666a8.533333 8.533333 0 0 0-1.365333 1.194667l2.218667 2.730667c13.141333 15.530667 25.770667 31.573333 37.888 47.957333 14.165333 19.114667 29.013333 37.717333 44.544 55.978667 0.853333 1.024 1.536 2.048 2.218666 3.072 3.242667-2.048 5.973333-3.413333 8.362667-5.12 12.117333-8.362667 24.405333-16.554667 36.352-25.258667 15.018667-10.752 29.866667-21.845333 43.349333-34.645333 0.853333-0.853333 1.706667-1.536 2.389334-2.389334 1.877333-2.389333 1.877333-3.072 0.170666-5.461333-6.656-9.557333-13.141333-19.114667-19.797333-28.672-0.170667-0.341333-0.682667-0.512-1.024-0.853333-2.56 1.706667-4.778667 3.584-7.168 5.12-3.072 1.877333-6.144 3.925333-9.386667 5.290666a7.611733 7.611733 0 1 1-7.850666-12.8c1.877333-1.536 3.925333-2.901333 5.973333-4.266666 5.290667-3.584 10.922667-7.168 16.042667-11.093334 8.704-6.485333 16.554667-13.994667 23.381333-22.357333 1.536-1.706667 3.072-3.413333 4.949333-4.778667a7.168 7.168 0 0 1 8.533334 0c2.901333 1.877333 3.925333 4.608 3.242666 7.850667-0.512 1.877333-1.536 3.925333-2.901333 5.461333-2.730667 3.242667-5.802667 6.314667-8.874667 9.386667-0.853333 0.853333-1.536 1.706667-2.56 2.730667 9.386667 9.216 18.432 18.432 27.818667 27.648 2.048-1.024 3.925333-1.706667 5.461333-2.901334 4.096-3.072 8.192-6.144 12.117334-9.386666 16.725333-13.824 31.914667-29.184 47.274666-44.373334 5.802667-5.802667 11.434667-11.946667 17.066667-17.92 1.024-1.194667 2.048-2.56 3.242667-4.096v-0.170666z m-129.706667-143.701334c-1.024-0.853333-1.536-1.194667-2.218667-1.877333-7.338667-7.168-14.677333-14.165333-21.845333-21.504-18.944-19.285333-37.546667-38.741333-57.173333-57.173333-12.458667-11.776-24.405333-23.893333-36.522667-36.010667-0.512-0.512-1.024-0.682667-1.877333-1.365333-0.853333 3.754667-1.706667 6.997333-2.56 10.410666-5.802667 20.821333-15.36 39.765333-27.648 57.514667-7.850667 11.434667-16.725333 22.016-26.965334 31.402667-5.632 5.12-11.776 9.386667-18.261333 13.312-28.672 17.578667-59.221333 28.672-93.013333 30.208-0.682667 0-1.194667 0.341333-2.048 0.512 0.853333 1.194667 1.536 2.218667 2.218666 3.072l10.581334 15.189333c6.485333 9.557333 12.970667 18.944 19.456 28.501333 2.389333 3.584 4.608 7.509333 7.168 11.093334 6.314667 9.216 12.8 18.261333 19.285333 27.306666 12.117333 17.237333 24.064 34.474667 36.181333 51.712 0.170667 0.341333 0.512 0.341333 0.853334 0.682667 0.512-0.170667 0.853333-0.341333 1.194666-0.512 8.874667-5.632 18.090667-11.093333 26.794667-17.066667 14.677333-9.898667 27.989333-21.504 41.642667-32.768 12.458667-10.24 24.576-20.821333 37.034666-31.232 13.141333-11.093333 26.282667-22.186667 39.594667-33.109333 16.554667-13.824 32.085333-28.672 45.738667-45.397333 0.682667-0.853333 1.536-1.706667 2.56-3.072l-0.170667 0.170666zM425.642667 651.776l-27.989334-0.512c-9.216-0.341333-18.261333-0.512-27.477333-1.024s-18.602667-1.194667-27.818667-2.218667c-9.045333-1.024-18.090667-2.389333-26.965333-3.584-0.341333 0.682667-0.512 0.853333-0.512 1.024 0 0.853333-0.170667 1.536-0.170667 2.389334-0.341333 13.141333-0.341333 26.282667 1.365334 39.253333 1.024 8.533333 2.56 16.896 5.973333 24.917333 3.925333 9.216 10.24 15.701333 19.626667 19.114667 2.56 0.853333 5.12 1.706667 7.68 2.389333 8.704 2.048 17.578667 1.877333 26.282666 1.365334 11.264-0.682667 21.845333-3.754667 31.914667-8.874667 5.12-2.56 8.704-6.485333 10.752-11.776 2.56-6.656 4.096-13.653333 4.608-20.650667 1.024-12.8 1.706667-25.429333 2.56-38.229333v-3.584h0.170667zM681.813333 436.906667c1.877333 0.341333 3.242667 0.682667 4.608 0.853333 11.434667 1.365333 22.869333 2.730667 34.304 3.925333 7.509333 0.682667 15.018667 0.682667 22.528-0.512 6.485333-1.024 11.434667-3.925333 15.36-9.216 12.8-17.92 18.432-37.888 16.896-59.733333-0.853333-11.264-5.973333-20.48-15.872-26.453333-3.242667-1.877333-6.485333-3.754667-9.728-5.290667-15.36-6.656-31.573333-10.069333-47.957333-12.629333-2.56-0.341333-4.949333-0.682667-8.021333-1.024-0.512 37.205333-5.461333 73.386667-11.946667 110.08h-0.170667zM457.728 648.874667c0.341333 1.877333 0.341333 4.096 1.024 6.144 1.024 2.389333 2.389333 4.778667 3.925333 6.997333 3.413333 5.12 4.608 5.632 10.24 3.072 7.68-3.413333 14.677333-7.850667 21.674667-12.629333 9.898667-6.997333 19.797333-13.824 29.696-20.821334 9.728-6.997333 19.285333-14.165333 28.672-21.674666 14.848-11.946667 29.525333-24.064 44.032-36.522667 13.653333-11.776 27.306667-23.552 40.448-35.84 12.458667-11.605333 24.234667-23.722667 36.181333-35.84 4.096-4.266667 7.850667-8.874667 11.605334-13.482667 1.365333-1.706667 2.389333-3.754667 3.584-5.461333 1.024-1.536 0.853333-3.242667-0.341334-4.437333-2.218667-2.389333-4.608-4.437333-6.997333-6.826667-2.218667-2.218667-5.12-3.072-8.362667-3.072l-3.072 4.608c-7.850667 11.264-17.237333 21.162667-26.794666 30.72-12.8 12.8-26.794667 24.405333-40.618667 36.181333-12.288 10.410667-24.746667 20.650667-37.205333 31.061334-19.114667 15.872-38.058667 31.914667-57.685334 47.274666-15.018667 11.776-30.890667 22.357333-48.64 29.866667-0.341333 0-0.512 0.341333-1.365333 1.024v-0.341333z m185.514667-326.144c-1.024-0.341333-1.536-0.682667-1.877334-0.682667-21.674667-1.194667-43.349333-2.56-65.024-3.754667h-2.389333q-0.170667 0-0.170667 0.170667t-0.170666 0.512c0.341333 0.512 0.853333 1.194667 1.365333 1.877333 8.874667 10.581333 16.725333 22.016 24.064 33.792 4.608 7.509333 9.216 15.018667 12.117333 23.381334 2.218667 6.314667 2.901333 12.629333 0.170667 18.944-0.853333 1.877333-0.341333 2.901333 0.853333 4.266666 5.973333 6.144 11.946667 12.288 18.090667 18.432 0.512 0.512 1.194667 0.853333 2.218667 1.536 5.802667-32.938667 8.021333-65.706667 10.922666-98.645333l-0.170666 0.170667zM319.146667 593.237333c2.048 0.341333 3.584 0.682667 4.949333 0.853334 6.656 0.512 13.141333 1.024 19.797333 1.706666l29.866667 2.56 15.701333 1.024 26.112 1.024c1.024 0 1.877333-0.170667 3.072-0.341333-0.341333-0.853333-0.341333-1.194667-0.682666-1.536-5.12-7.338667-10.410667-14.506667-15.530667-21.845333-1.024-1.536-2.389333-1.706667-3.925333-1.365334-6.314667 1.536-12.288 0.170667-17.749334-3.072a108.714667 108.714667 0 0 1-13.653333-9.557333c-13.482667-11.093333-25.941333-23.381333-37.205333-36.693333-0.512-0.682667-1.194667-1.024-2.389334-2.048-2.730667 23.552-5.461333 46.250667-8.362666 69.461333v-0.170667z m374.613333 155.477334c-1.024 0.853333-1.706667 1.365333-2.218667 2.048-13.994667 14.165333-29.354667 26.794667-45.226666 38.741333-10.922667 8.362667-22.528 15.872-33.962667 23.893333-1.024 0.682667-1.877333 1.365333-3.242667 2.389334 8.874667 7.168 17.92 12.117333 29.013334 12.629333 10.24 0.512 19.626667-1.877333 28.330666-6.997333 11.776-6.826667 21.845333-15.701333 30.549334-26.112 3.584-4.266667 5.802667-9.216 5.973333-15.018667 0-2.56 0-5.12-0.341333-7.68-1.024-8.533333-4.608-16.213333-9.045334-24.064l0.170667 0.170667z m36.522667-30.72c6.826667 5.461333 13.482667 10.069333 21.333333 12.8 9.557333 3.413333 18.773333 2.56 27.306667-3.072 1.024-0.682667 2.048-1.194667 2.901333-1.877334 6.314667-4.949333 12.629333-9.898667 18.773333-15.189333 5.802667-5.12 10.410667-11.264 13.824-18.261333 7.338667-15.36 5.973333-30.378667-2.56-45.056 0-0.170667-0.512-0.341333-1.024-0.682667-24.746667 25.941333-50.517333 50.346667-80.384 71.168l-0.170666 0.170667z m-64.853334-282.965334c7.509333-36.522667 10.581333-73.216 13.312-110.08-7.168-1.024-13.994667-1.706667-21.333333-1.877333-0.512 36.693333-4.949333 72.704-11.093333 108.885333 6.485333 1.024 12.458667 2.048 18.944 3.072h0.170666zM317.610667 608.085333c-0.512 7.338667-1.877333 14.165333-1.536 21.333334 18.432 1.536 36.693333 3.072 54.954666 4.778666 17.066667 1.536 51.882667 2.048 55.125334 0.682667 0.682667-4.437333 0.682667-16.213333 0-18.773333-36.181333-0.170667-72.362667-2.218667-108.544-8.021334z m201.728-274.773333c-0.341333 0.853333-0.682667 1.706667-0.853334 2.56-1.706667 4.778667-3.072 9.557333-4.949333 14.165333-21.162667 52.053333-57.856 88.576-110.08 109.226667-18.090667 7.168-36.864 10.922667-56.32 12.288-0.682667 0-1.365333 0.341333-2.048 0.512 1.365333 1.024 2.730667 1.706667 4.266667 2.048 8.874667 2.218667 17.749333 2.048 26.624 1.194667 14.848-1.536 29.184-5.461333 43.008-10.922667 22.016-8.704 42.154667-20.138667 58.197333-37.888 13.653333-15.189333 24.746667-32.256 32.938667-51.029333 3.925333-9.045333 7.168-18.432 8.874666-28.16 0.853333-4.608 1.536-9.045333 0.341334-13.824v-0.170667z m-269.994667 118.101333c-1.706667-1.024-2.730667-1.536-3.925333-2.218666-6.826667-4.266667-13.653333-8.362667-20.48-12.629334-1.194667-0.682667-2.218667-1.706667-3.242667-2.56-3.072-2.730667-5.802667-5.632-9.045333-8.021333-8.704-6.314667-16.384-13.653333-23.210667-22.016-3.754667-4.608-7.168-9.386667-10.922667-13.994667-0.682667-1.024-1.536-1.877333-2.56-3.413333-1.706667 2.730667-3.072 4.949333-4.437333 7.338667-1.365333 2.56-1.706667 5.461333-1.194667 8.533333 1.194667 6.656 3.413333 12.970667 6.997334 18.773333 4.778667 7.68 10.581333 14.506667 17.578666 19.968 5.973333 4.778667 12.288 9.216 18.602667 13.482667 3.072 2.048 6.656 3.584 10.24 4.949333 2.048 0.853333 4.437333 1.194667 6.485333 0.853334 6.826667-1.024 12.970667-4.096 18.944-9.045334h0.170667z m269.312-225.621333c4.437333-5.12 8.021333-9.557333 9.386667-15.36 0.341333-1.706667 0.512-3.584 0-5.12-1.024-4.437333-2.218667-8.874667-3.925334-12.970667-4.437333-10.410667-9.216-20.650667-16.213333-29.525333-6.997333-8.704-14.848-16.213333-25.770667-20.138667-1.706667-0.512-3.413333-1.194667-5.12-1.194666-2.901333-0.170667-5.632 0-7.850666 1.877333 22.698667 23.552 39.424 50.346667 49.322666 82.432h0.170667zM597.333333 804.010667c1.877333-1.194667 3.242667-1.877333 4.608-2.901334 10.922667-7.509333 22.186667-14.677333 32.597334-22.869333 16.042667-12.629333 31.573333-25.941333 47.445333-38.912 0.853333-0.682667 1.706667-1.536 2.389333-2.56 0.682667-1.024 1.365333-2.218667 0.512-3.584-1.536-2.389333-3.072-4.778667-4.949333-7.509333-1.194667 1.024-2.048 1.877333-2.730667 2.730666-6.314667 6.485333-12.288 12.970667-19.456 18.602667-21.333333 16.384-43.008 32.256-65.536 46.592-0.682667 0.512-1.365333 1.024-2.389333 1.877333 2.56 2.901333 4.949333 5.461333 7.509333 8.362667v0.170667z m113.664-103.936q0.341333 0.853333 0.512 1.024c1.365333 1.365333 2.901333 2.730667 4.266667 4.096 2.56 2.389333 3.413333 2.389333 6.314667 0.512 1.024-0.682667 1.877333-1.365333 2.730666-2.048 4.949333-4.096 9.898667-8.362667 15.018667-12.458667 21.162667-17.066667 40.789333-35.669333 59.392-55.466667 0.853333-0.853333 1.706667-1.877333 2.56-3.072-2.389333-3.072-4.608-5.802667-6.997333-8.874666-0.853333 0.682667-1.194667 1.024-1.706667 1.536-12.288 12.458667-24.405333 25.258667-37.034667 37.546666-13.482667 13.141333-27.136 26.282667-43.349333 36.010667-0.682667 0.341333-1.194667 1.024-1.877333 1.536l0.170666-0.341333zM332.288 484.693333c-0.170667 1.365333-0.512 2.389333-0.512 3.413334-0.341333 3.242667-0.512 6.485333-1.024 9.728-0.682667 3.925333 0.512 6.656 3.242667 9.557333 13.653333 14.336 26.794667 29.013333 41.984 41.642667 3.242667 2.730667 6.826667 5.12 10.410666 7.68 0.512 0.341333 1.365333 0.512 2.56 1.024-0.512-1.024-0.682667-1.536-1.024-2.048-4.778667-7.338667-9.728-14.677333-14.506666-22.186667-9.216-14.165333-18.602667-28.330667-27.818667-42.666667-0.512-0.682667-1.024-1.365333-1.706667-1.706666-3.754667-1.536-7.509333-2.901333-11.605333-4.608v0.170666z m262.826667-100.522666q0.512-0.341333 0.682666-0.512c-0.341333-1.024-0.682667-2.218667-1.024-3.242667-1.706667-3.413333-3.413333-6.826667-5.290666-10.24-10.24-18.090667-23.210667-34.474667-35.669334-51.2-1.024-1.365333-2.218667-2.218667-4.096-2.218667-4.266667-0.170667-8.533333-0.512-12.8-0.853333h-3.072v1.706667c0.682667 3.242667 1.365333 6.656 2.218667 9.898666 0.170667 0.853333 0.682667 1.706667 1.365333 2.389334 3.754667 3.584 7.509333 6.997333 11.264 10.410666 14.848 13.994667 29.696 27.989333 44.544 42.154667 0.682667 0.682667 1.365333 1.194667 2.048 1.706667h-0.170666zM85.333333 249.685333c0.512-18.944 4.949333-37.205333 11.946667-54.613333 15.36-39.253333 39.253333-72.362667 72.021333-98.986667 3.413333-2.730667 6.826667-5.12 10.410667-7.68 2.218667-1.536 4.608-2.218667 7.338667-1.365333 5.461333 1.877333 7.168 8.192 3.413333 12.458667-0.682667 0.853333-1.706667 1.536-2.56 2.218666-23.552 16.554667-42.325333 37.717333-57.514667 61.952-11.434667 18.261333-20.138667 37.717333-25.258666 58.538667-2.048 8.192-3.242667 16.725333-3.584 25.088-0.341333 6.997333 0.512 13.994667 2.048 20.821333 0.341333 1.194667 0.512 2.56 0.512 3.754667 0 3.754667-2.048 6.656-5.461334 7.68-3.754667 1.024-7.509333-0.512-9.045333-4.096-1.024-2.218667-1.706667-4.608-2.048-6.997333-0.853333-6.314667-1.536-12.629333-2.218667-18.944v0.170666zM867.328 263.509333q-1.024 2.218667-2.048 3.413334c-3.242667 4.096-5.973333 8.362667-7.168 13.482666-1.877333 8.533333-0.853333 16.554667 3.072 24.405334 1.194667 2.56 2.730667 4.778667 4.096 7.168 2.048 3.584 0.341333 8.021333-3.413333 9.386666-1.706667 0.682667-3.413333 0.512-4.949334-0.682666-1.024-0.853333-1.877333-1.877333-2.730666-2.730667-11.434667-11.776-27.648-13.994667-41.642667-5.632-0.682667 0.341333-1.194667 0.682667-1.877333 1.024-2.730667 1.365333-5.12 0.853333-7.168-1.536s-2.048-4.437333-0.512-6.997333c0.341333-0.512 0.853333-1.024 1.365333-1.706667 10.410667-12.8 10.581333-29.354667 0.341333-42.325333-0.853333-1.024-1.706667-2.048-2.218666-3.072-1.194667-2.218667-0.682667-4.266667 1.024-5.973334 3.242667-3.072 6.144-3.242667 9.557333-0.170666 5.632 4.949333 11.946667 8.874667 19.456 10.410666 8.021333 1.706667 15.530667 0.682667 22.528-3.413333 1.194667-0.682667 2.218667-1.365333 3.242667-1.877333 4.096-1.877333 8.874667 1.365333 8.704 6.826666h0.341333zM171.178667 581.973333c-5.632 0.170667-11.093333 1.536-16.213334 4.608-0.853333 0.512-1.706667 1.194667-2.730666 1.536-2.730667 1.365333-5.12 1.024-7.168-1.365333-2.218667-2.389333-2.218667-4.608-0.512-7.168 0.341333-0.512 0.853333-1.024 1.365333-1.706667 10.24-12.629333 10.410667-28.842667 0.682667-41.813333-0.682667-0.853333-1.365333-1.536-1.877334-2.389333-1.706667-2.56-1.877333-4.778667 0-6.656 2.218667-2.218667 5.12-3.925333 8.021334-2.048 1.024 0.682667 2.048 1.536 2.901333 2.389333 5.461333 4.608 11.434667 8.021333 18.432 9.386667 7.68 1.536 15.018667 0.682667 21.845333-3.072 1.024-0.512 2.048-1.194667 3.072-1.706667 3.072-1.706667 5.461333-1.365333 7.850667 1.194667 2.389333 2.730667 2.56 5.12 0 8.021333-3.413333 4.096-6.144 8.533333-7.338667 13.653333-1.877333 8.021333-1.024 15.872 2.56 23.381334 1.365333 2.901333 3.072 5.461333 4.608 8.192 2.048 3.584 0.682667 8.021333-3.242666 9.557333-1.877333 0.853333-3.754667 0.512-5.290667-0.853333-1.024-0.853333-1.706667-1.877333-2.730667-2.730667-6.656-6.826667-14.677333-10.410667-24.405333-10.581333l0.170667 0.170666zM910.506667 609.792c-3.072 0-5.290667-1.536-6.997334-3.754667l-10.752-13.312c-25.258667-31.402667-50.688-62.805333-75.946666-94.208-0.853333-1.024-1.706667-2.218667-2.389334-3.413333-1.877333-3.584-1.024-7.68 2.048-9.898667 2.901333-2.218667 7.168-1.877333 9.898667 0.512 1.024 0.853333 1.706667 1.877333 2.56 2.901334 28.501333 35.328 56.832 70.656 85.333333 105.984 1.194667 1.536 2.56 3.072 3.242667 4.949333 2.218667 5.12-1.536 10.410667-6.997333 10.581333v-0.341333zM785.578667 812.202667c2.730667 0 4.778667 1.536 6.656 3.925333 4.608 5.973333 9.386667 11.776 13.994666 17.749333 21.504 27.136 42.837333 54.442667 64.341334 81.578667 0.853333 1.024 1.706667 2.218667 2.56 3.413333 2.389333 3.754667 1.706667 8.192-1.536 10.581334s-7.68 2.048-10.752-1.194667c-0.512-0.512-1.024-1.194667-1.536-1.877333l-78.848-99.84c-0.853333-1.194667-1.877333-2.389333-2.389334-3.754667-2.048-5.12 1.536-10.410667 7.509334-10.410667v-0.170666zM566.272 942.08c-2.56 0-4.608-1.365333-6.314667-3.413333l-8.874666-10.410667c-21.674667-25.429333-43.349333-51.029333-65.024-76.458667-1.536-1.877333-3.242667-3.584-4.778667-5.632a7.68 7.68 0 0 1 0-9.216c2.048-2.730667 4.778667-3.584 8.021333-3.072 2.218667 0.341333 3.754667 1.706667 5.12 3.413334 8.874667 10.410667 17.749333 20.992 26.624 31.402666 16.384 19.456 32.938667 38.741333 49.322667 58.197334 1.194667 1.365333 2.218667 2.730667 3.072 4.266666 2.389333 5.12-1.365333 10.752-7.168 10.752v0.170667zM123.562667 723.114667c0-10.752 8.192-19.114667 18.944-19.114667 10.581333 0 19.285333 8.533333 19.456 19.114667 0 10.581333-8.533333 19.114667-18.944 19.285333-10.581333 0-19.285333-8.533333-19.285334-19.285333h-0.170666z m18.944-9.045334c-4.949333 0-8.874667 4.266667-8.874667 9.386667 0 4.949333 4.266667 8.704 9.045333 8.704 4.949333 0 9.045333-4.266667 8.874667-9.386667 0-4.949333-4.266667-8.704-9.045333-8.704zM790.869333 106.666667c-10.581333 0-19.114667-9.045333-18.773333-19.797334 0.170667-10.410667 9.045333-18.944 19.456-18.602666 10.581333 0.341333 18.944 8.874667 18.773333 19.285333 0 10.752-8.874667 19.114667-19.456 19.114667z m9.216-19.285334c0-5.12-4.096-9.045333-9.045333-8.874666a9.045333 9.045333 0 0 0-8.874667 8.874666c0 4.949333 4.096 9.045333 9.045334 9.045334 4.949333 0 9.045333-4.096 9.045333-9.045334h-0.170667z" fill="#000000" p-id="16746"></path><path d="M486.058667 288.256c-0.853333 38.4-15.189333 71.509333-42.154667 99.157333-22.869333 23.210667-50.517333 37.888-82.602667 43.349334-34.816 5.973333-67.754667 0.682667-97.792-17.92-32.426667-20.138667-52.224-49.322667-58.538666-86.869334-5.802667-34.133333 1.365333-66.218667 19.797333-95.402666 23.893333-37.546667 58.197333-60.416 101.888-68.778667 34.645333-6.485333 67.754667-1.365333 97.962667 17.237333 33.109333 20.138667 52.906667 49.834667 59.562666 88.064 0.512 2.901333 0.853333 5.802667 1.194667 8.704 0.341333 4.096 0.341333 8.192 0.682667 12.629334v-0.170667z m-250.026667 26.453333c0 7.68 1.024 15.018667 2.901333 22.528 7.850667 30.037333 25.6 52.394667 52.565334 67.242667 18.261333 10.069333 37.717333 14.165333 58.538666 11.776 2.901333-0.341333 5.802667-0.853333 8.533334-1.536 4.266667-1.194667 6.656-4.949333 5.973333-9.386667-0.512-4.096-3.925333-6.826667-8.362667-6.826666-1.194667 0-2.389333 0.170667-3.413333 0.341333-2.389333 0.341333-4.778667 0.853333-7.168 1.024-18.944 1.365333-36.693333-3.072-52.224-13.824-27.477333-18.944-41.984-44.714667-39.765333-78.677333v-3.072c-0.853333-6.144-7.509333-9.216-12.629334-6.144-2.048 1.365333-3.413333 3.242667-3.754666 5.632-0.512 3.754667-0.682667 7.338667-1.024 11.093333l-0.170667-0.170667z m21.674667-27.648q2.048-0.170667 3.413333-0.512c3.242667-0.853333 5.461333-3.584 5.632-6.656 0-3.072-1.706667-5.802667-4.608-7.168a10.359467 10.359467 0 0 0-7.168-0.512c-4.266667 1.194667-6.485333 4.437333-6.144 8.362667 0.512 3.925333 3.754667 6.485333 8.874667 6.485333zM487.594667 577.024a14.779733 14.779733 0 0 1-10.752-3.925333c-1.877333-1.706667-3.754667-3.413333-5.461334-5.461334-8.704-10.581333-17.237333-21.333333-25.770666-32.085333-1.877333-2.389333-3.584-5.12-5.290667-7.68-3.925333-6.144-3.242667-12.117333 0.853333-17.92 1.536-2.048 3.413333-3.925333 5.12-5.632 12.458667-11.776 25.770667-22.698667 40.106667-32.426667 2.730667-1.877333 5.12-3.925333 7.509333-6.144 12.117333-12.288 25.088-23.381333 38.912-33.792 1.706667-1.365333 3.584-2.56 5.461334-3.754666 6.997333-3.925333 13.312-3.242667 19.285333 2.218666 3.242667 2.901333 6.314667 5.973333 9.045333 9.216 8.192 9.216 16.213333 18.602667 24.234667 27.989334 1.365333 1.536 2.56 3.242667 3.754667 5.12 4.096 6.144 4.096 12.458667 0.512 18.773333-1.365333 2.389333-3.072 4.608-5.12 6.656-9.557333 9.216-19.114667 18.432-28.842667 27.306667-4.096 3.754667-8.704 6.826667-13.824 9.386666-0.853333 0.341333-1.706667 1.024-2.218667 1.706667-3.925333 5.290667-8.533333 9.898667-13.824 13.824-9.728 7.338667-19.626667 14.506667-29.525333 21.674667-4.266667 3.072-8.874667 5.461333-14.506667 5.290666l0.341334-0.341333z m-33.450667-57.514667c1.194667 1.877333 2.048 3.242667 3.242667 4.608 8.704 10.922667 17.237333 21.845333 26.112 32.768 4.266667 5.12 4.778667 5.290667 10.24 1.365334 9.898667-7.168 19.626667-14.506667 29.354666-21.845334 2.048-1.536 4.096-3.584 5.973334-5.461333 2.389333-2.389333 4.266667-5.461333 7.850666-6.826667 0.341333 0 0.512-0.341333 0.682667-0.682666 1.365333-2.389333 3.584-3.413333 5.802667-4.949334 2.730667-1.877333 5.632-3.754667 8.192-5.973333 9.045333-8.362667 17.92-16.896 26.794666-25.429333 4.608-4.437333 4.608-5.12 0.341334-10.069334-7.68-9.045333-15.530667-17.92-23.210667-26.794666-1.877333-2.048-3.754667-4.096-5.802667-5.973334-2.730667-2.730667-2.901333-2.901333-5.973333-0.341333-4.608 3.413333-9.045333 6.826667-13.482667 10.581333-11.605333 9.557333-23.381333 19.114667-34.816 28.842667-12.629333 10.752-25.258667 21.674667-37.717333 32.597333-1.194667 1.024-2.048 2.218667-3.242667 3.413334l-0.341333 0.170666z" fill="#000000" p-id="16747"></path></svg>