<?xml version="1.0" standalone="no"?><!DOCTYPE svg PUBLIC "-//W3C//DTD SVG 1.1//EN" "http://www.w3.org/Graphics/SVG/1.1/DTD/svg11.dtd"><svg t="1752918989935" class="icon" viewBox="0 0 1024 1024" version="1.1" xmlns="http://www.w3.org/2000/svg" p-id="26151" xmlns:xlink="http://www.w3.org/1999/xlink" width="200" height="200"><path d="M429.3 589.5m-349.3 0a349.3 349.3 0 1 0 698.6 0 349.3 349.3 0 1 0-698.6 0Z" fill="#FFE41D" p-id="26152"></path><path d="M429.3 944.2c-195.6 0-354.7-159.1-354.7-354.7s159.1-354.7 354.7-354.7S784 393.9 784 589.5 624.9 944.2 429.3 944.2z m0-698.7c-189.7 0-344 154.3-344 344s154.3 344 344 344 344-154.3 344-344-154.3-344-344-344z" fill="#5E2B08" p-id="26153"></path><path d="M750.3 938.6l-7.2-7.8c95.2-87.6 149.8-211.9 149.8-341.2 0-255.6-207.9-463.5-463.5-463.5-10.9 0-21.9 0.4-32.7 1.1l-0.7-10.6c11.1-0.8 22.3-1.2 33.5-1.2 261.5 0 474.2 212.7 474.2 474.2-0.2 132.1-56 259.4-153.4 349z" fill="#5E2B08" p-id="26154"></path><path d="M648.2 317.3c48.2 59.9 77.1 136 77.1 218.9 0 192.9-156.4 349.3-349.3 349.3-82.9 0-159-28.9-218.9-77.1 64 79.5 162.2 130.4 272.2 130.4 192.9 0 349.3-156.4 349.3-349.3 0.1-110.1-50.8-208.2-130.4-272.2z" fill="#FFC024" p-id="26155"></path><path d="M429.3 944.2c-195.6 0-354.7-159.1-354.7-354.7s159.1-354.7 354.7-354.7S784 393.9 784 589.5 624.9 944.2 429.3 944.2z m0-698.7c-189.7 0-344 154.3-344 344s154.3 344 344 344 344-154.3 344-344-154.3-344-344-344z" fill="#5E2B08" p-id="26156"></path><path d="M506.8 324.3l13.8 42.6c1.9 5.8 7.3 9.8 13.5 9.8h44.6c13.8 0 19.5 17.6 8.3 25.7l-35.9 25.9c-5 3.6-7.1 10-5.2 15.9l13.8 42.3c4.3 13.1-10.7 24-21.8 15.9L501.7 476c-5-3.6-11.7-3.6-16.7 0l-36.2 26.3c-11.1 8.1-26.1-2.8-21.8-15.9l13.8-42.1c1.9-5.9-0.2-12.3-5.2-15.9l-35.9-25.9c-11.2-8.1-5.5-25.7 8.3-25.7h44.6c6.1 0 11.6-4 13.5-9.8l13.8-42.6c4.2-13.2 22.7-13.2 26.9-0.1z" fill="#FFC024" p-id="26157"></path><path d="M546.2 510.4c-4 0-8-1.3-11.5-3.8l-36.2-26.3a8.7 8.7 0 0 0-10.4 0l-36.2 26.3c-7 5.1-16 5.1-23 0s-9.7-13.6-7.1-21.8l13.8-42.1c1.2-3.7-0.1-7.7-3.2-9.9l-35.9-25.9c-7-5-9.8-13.6-7.2-21.8 2.7-8.2 9.9-13.5 18.6-13.5h44.6c3.8 0 7.2-2.5 8.4-6.1l13.8-42.6c2.7-8.2 9.9-13.5 18.6-13.5 8.6 0 15.9 5.3 18.6 13.5l13.8 42.6c1.2 3.7 4.6 6.1 8.4 6.1h44.6c8.6 0 15.9 5.3 18.6 13.5 2.7 8.2-0.2 16.8-7.2 21.8l-35.9 25.9c-3.1 2.3-4.4 6.2-3.2 9.9l13.8 42.3c2.7 8.2-0.1 16.8-7.1 21.8-3.5 2.4-7.5 3.6-11.5 3.6z m-52.9-42.5c4 0 8.1 1.2 11.5 3.7L541 498c3.8 2.8 7.9 1.8 10.4 0s4.7-5.4 3.2-9.9l-13.8-42.3c-2.6-8.1 0.2-16.9 7.1-21.9l35.9-25.9c3.9-2.8 4.2-6.9 3.2-9.9s-3.7-6.1-8.4-6.1H534c-8.5 0-15.9-5.4-18.6-13.5l-13.8-42.6c-1.5-4.5-5.3-6.1-8.4-6.1s-7 1.6-8.4 6.1L471 368.5c-2.6 8.1-10.1 13.5-18.6 13.5h-44.6c-4.8 0-7.5 3.2-8.4 6.1-1 3-0.6 7.1 3.2 9.9l35.9 25.9c6.9 5 9.8 13.8 7.1 21.9L432.1 488c-1.5 4.5 0.7 8.1 3.2 9.9 2.5 1.8 6.6 2.8 10.4 0l36.2-26.3c3.4-2.4 7.4-3.7 11.4-3.7zM712 592.2c-22.1 0-40-17.9-40-40s17.9-40 40-40 40 17.9 40 40c0 22-17.9 40-40 40z m0-69.4c-16.2 0-29.3 13.2-29.3 29.3 0 16.2 13.2 29.3 29.3 29.3s29.3-13.2 29.3-29.3-13.1-29.3-29.3-29.3z" fill="#5E2B08" p-id="26158"></path><path d="M984 421.5m-34.7 0a34.7 34.7 0 1 0 69.4 0 34.7 34.7 0 1 0-69.4 0Z" fill="#FFC024" p-id="26159"></path><path d="M984 461.5c-22.1 0-40-17.9-40-40s17.9-40 40-40 40 17.9 40 40-17.9 40-40 40z m0-69.3c-16.2 0-29.3 13.2-29.3 29.3s13.2 29.3 29.3 29.3 29.3-13.2 29.3-29.3-13.1-29.3-29.3-29.3zM512 632.2c-13.2 0-24-10.8-24-24s10.8-24 24-24 24 10.8 24 24-10.8 24-24 24z m0-37.4c-7.4 0-13.3 6-13.3 13.3s6 13.3 13.3 13.3c7.4 0 13.3-6 13.3-13.3s-6-13.3-13.3-13.3zM269.3 633.4c-24.2 0-43.9-19.7-43.9-43.9s19.7-43.9 43.9-43.9 43.9 19.7 43.9 43.9-19.7 43.9-43.9 43.9z m0-77.1c-18.3 0-33.2 14.9-33.2 33.2s14.9 33.2 33.2 33.2 33.2-14.9 33.2-33.2-14.9-33.2-33.2-33.2zM282.7 381.5c-10.3 0-18.7-8.4-18.7-18.7s8.4-18.7 18.7-18.7 18.7 8.4 18.7 18.7-8.4 18.7-18.7 18.7z m0-26.7c-4.4 0-8 3.6-8 8s3.6 8 8 8 8-3.6 8-8-3.6-8-8-8zM157.1 470.6c-15.3 0-27.8-12.5-27.8-27.8s12.5-27.8 27.8-27.8 27.8 12.5 27.8 27.8c0 15.4-12.5 27.8-27.8 27.8z m0-44.9c-9.4 0-17.1 7.7-17.1 17.1 0 9.4 7.7 17.1 17.1 17.1 9.4 0 17.1-7.7 17.1-17.1 0-9.4-7.7-17.1-17.1-17.1zM26.7 381.5c-10.3 0-18.7-8.4-18.7-18.7s8.4-18.7 18.7-18.7 18.7 8.4 18.7 18.7-8.4 18.7-18.7 18.7z m0-26.7c-4.4 0-8 3.6-8 8s3.6 8 8 8 8-3.6 8-8-3.6-8-8-8zM690.7 98.8c-14.7 0-26.7-12-26.7-26.7s12-26.7 26.7-26.7 26.7 12 26.7 26.7-12 26.7-26.7 26.7z" fill="#5E2B08" p-id="26160"></path><path d="M322.7 118.8m-72 0a72 72 0 1 0 144 0 72 72 0 1 0-144 0Z" fill="#FFE41D" p-id="26161"></path><path d="M322.7 196.2c-42.6 0-77.3-34.7-77.3-77.3s34.7-77.3 77.3-77.3S400 76.2 400 118.8s-34.7 77.4-77.3 77.4z m0-144c-36.8 0-66.7 29.9-66.7 66.7s29.9 66.7 66.7 66.7 66.7-29.9 66.7-66.7-30-66.7-66.7-66.7z" fill="#5E2B08" p-id="26162"></path><path d="M364.5 60.2c5.6 10.3 8.8 22.1 8.8 34.6 0 39.8-32.2 72-72 72-15.6 0-30-5-41.8-13.4 12.2 22.3 35.9 37.4 63.2 37.4 39.8 0 72-32.2 72-72 0-24.1-11.9-45.5-30.2-58.6z" fill="#FFC024" p-id="26163"></path><path d="M733.3 980.2c-19.9 0-36-16.1-36-36s16.1-36 36-36 36 16.1 36 36-16.1 36-36 36z m0-37.4c-0.7 0-1.3 0.6-1.3 1.3s0.6 1.3 1.3 1.3 1.3-0.6 1.3-1.3-0.5-1.3-1.3-1.3z" fill="#5E2B08" p-id="26164"></path><path d="M322.7 196.2c-42.6 0-77.3-34.7-77.3-77.3s34.7-77.3 77.3-77.3S400 76.2 400 118.8s-34.7 77.4-77.3 77.4z m0-144c-36.8 0-66.7 29.9-66.7 66.7s29.9 66.7 66.7 66.7 66.7-29.9 66.7-66.7-30-66.7-66.7-66.7z" fill="#5E2B08" p-id="26165"></path></svg>