<?xml version="1.0" standalone="no"?><!DOCTYPE svg PUBLIC "-//W3C//DTD SVG 1.1//EN" "http://www.w3.org/Graphics/SVG/1.1/DTD/svg11.dtd"><svg t="1752981082144" class="icon" viewBox="0 0 1313 1024" version="1.1" xmlns="http://www.w3.org/2000/svg" p-id="61205" xmlns:xlink="http://www.w3.org/1999/xlink" width="256.4453125" height="200"><path d="M216.14 781.435C170.3 705.48 143.9 616.356 143.9 521.041c0-277.778 224.157-502.959 500.67-502.959 61.35 0 120.126 11.084 174.452 31.377l-110.91 64.324c-17.77 10.3-23.853 33.13-13.595 50.977a37.056 37.056 0 0 0 50.741 13.66l154.99-89.893c146.695 87.701 244.974 248.576 244.974 432.514 0 72.161-15.119 140.78-42.369 202.816L998.918 784.14a19.3 19.3 0 0 0-7.017 26.298 19.118 19.118 0 0 0 26.178 7.048l50.904-29.527C980.444 929.739 823.467 1024 644.57 1024c-111.03 0-213.616-36.303-296.637-97.743l153.785-89.201a19.3 19.3 0 0 0 7.017-26.292 19.118 19.118 0 0 0-26.178-7.048L315.84 900.411a504.916 504.916 0 0 1-48.832-49.043l72.703-42.165c20.498-11.89 27.527-38.224 15.691-58.819-11.836-20.594-38.05-27.647-58.548-15.757l-80.714 46.808z m949.52-217.79l64.342-37.315a16.842 16.842 0 0 1 23.07 6.204 17.004 17.004 0 0 1-6.18 23.172l-64.343 37.322a16.842 16.842 0 0 1-23.07-6.21 17.004 17.004 0 0 1 6.187-23.173zM1277.142 504.874a16.962 16.884 90 1 0 33.767 0 16.962 16.884 90 1 0-33.767 0z" fill="#FF630A" p-id="61206"></path><path d="M40.411 287.632H11.74c-3.554 0-5.24 0.446-6.807 1.29a8.748 8.748 0 0 0-3.644 3.643C0.446 294.132 0 295.818 0 299.372v3.626c0 3.554 0.446 5.24 1.289 6.807a8.748 8.748 0 0 0 3.644 3.644c1.566 0.843 3.253 1.289 6.807 1.289H40.41v28.671c0 3.554 0.446 5.24 1.29 6.807a8.769 8.769 0 0 0 3.638 3.644c1.572 0.843 3.252 1.29 6.812 1.29h3.626c3.554 0 5.24-0.447 6.807-1.29a8.748 8.748 0 0 0 3.644-3.644c0.843-1.566 1.289-3.253 1.289-6.807v-28.671h28.672c3.553 0 5.24-0.446 6.806-1.29a8.748 8.748 0 0 0 3.644-3.643c0.844-1.567 1.29-3.253 1.29-6.807v-3.626c0-3.554-0.446-5.24-1.29-6.807a8.758 8.758 0 0 0-3.644-3.644c-1.566-0.843-3.253-1.289-6.806-1.289H67.517v-28.671c0-3.554-0.446-5.24-1.29-6.807a8.758 8.758 0 0 0-3.643-3.644c-1.566-0.843-3.253-1.29-6.807-1.29h-3.626c-3.554 0-5.24 0.447-6.806 1.29a8.748 8.748 0 0 0-3.645 3.644c-0.843 1.566-1.289 3.253-1.289 6.807v28.671zM1081.41 947.888h-16.264c-1.867 0-3.59 0.47-5.047 1.307a9.433 9.433 0 0 0-3.5 3.5 10.09 10.09 0 0 0-1.313 5.047c0 1.867 0.476 3.59 1.313 5.048s2.036 2.662 3.494 3.5c1.463 0.837 3.18 1.306 5.053 1.306h16.264v16.264c0 1.867 0.47 3.59 1.307 5.047a9.426 9.426 0 0 0 3.5 3.5c1.457 0.843 3.18 1.313 5.047 1.313 1.867 0 3.59-0.476 5.048-1.313s2.662-2.036 3.493-3.494c0.843-1.463 1.313-3.18 1.313-5.053v-16.264h16.264c1.867 0 3.59-0.47 5.047-1.307a9.426 9.426 0 0 0 3.5-3.5c0.843-1.457 1.313-3.18 1.313-5.047 0-1.867-0.476-3.59-1.313-5.048a9.433 9.433 0 0 0-3.494-3.5 10.09 10.09 0 0 0-5.053-1.306h-16.264v-16.264c0-1.867-0.47-3.59-1.307-5.047a9.433 9.433 0 0 0-3.5-3.5 10.09 10.09 0 0 0-5.047-1.313c-1.867 0-3.59 0.476-5.048 1.313a9.433 9.433 0 0 0-3.5 3.494 10.09 10.09 0 0 0-1.306 5.053v16.264z m-990.877 3.156l467.926-271.4a37.056 37.056 0 0 1 50.748 13.662c10.257 17.848 4.168 40.67-13.601 50.977l-467.927 271.399a37.056 37.056 0 0 1-50.747-13.662c-10.258-17.847-4.169-40.67 13.6-50.976z m30.225-170.705l487.84-282.946a25.588 25.588 0 0 1 35.039 9.433 25.84 25.84 0 0 1-9.39 35.207l-487.835 282.94a25.588 25.588 0 0 1-35.044-9.433 25.84 25.84 0 0 1 9.396-35.2z m467.433-512.024l370.882-215.11a37.056 37.056 0 0 1 50.748 13.661c10.258 17.848 4.168 40.67-13.601 50.977l-370.877 215.11a37.056 37.056 0 0 1-50.747-13.661c-10.258-17.848-4.168-40.67 13.6-50.977zM1019.308 36.153a36.14 35.978 90 1 0 71.956 0 36.14 35.978 90 1 0-71.956 0z" fill="#FF630A" p-id="61207"></path></svg>