<?xml version="1.0" standalone="no"?><!DOCTYPE svg PUBLIC "-//W3C//DTD SVG 1.1//EN" "http://www.w3.org/Graphics/SVG/1.1/DTD/svg11.dtd"><svg t="1752918701176" class="icon" viewBox="0 0 1024 1024" version="1.1" xmlns="http://www.w3.org/2000/svg" p-id="12988" xmlns:xlink="http://www.w3.org/1999/xlink" width="200" height="200"><path d="M512 512m-470.032787 0a470.032787 470.032787 0 1 0 940.065574 0 470.032787 470.032787 0 1 0-940.065574 0Z" fill="#E8BC82" p-id="12989"></path><path d="M512 62.95082c119.946492 0 232.708197 46.709508 317.523934 131.521049C914.339672 279.287607 961.04918 392.053508 961.04918 512c0 119.942295-46.709508 232.708197-131.525246 317.523934S631.942295 961.04918 512 961.04918c-247.606557 0-449.04918-201.442623-449.04918-449.04918S264.393443 62.95082 512 62.95082zM20.983607 512c0 270.747279 220.269115 491.016393 491.016393 491.016393 131.155934 0 254.459803-51.074098 347.194754-143.821639C951.938098 766.455607 1003.016393 643.155934 1003.016393 512s-51.074098-254.459803-143.821639-347.198951C766.459803 72.057705 643.155934 20.983607 512 20.983607 241.252721 20.983607 20.983607 241.252721 20.983607 512z" fill="#6E6E96" p-id="12990"></path><path d="M165.115803 226.34177c66.287213-55.740852 140.451672-30.275148 252.713967 8.271738 75.662689 25.977705 169.816131 58.313443 285.498755 71.491148 0.772197 0.088131 1.401705 0.130098 2.173901 0.134295L738.622951 306.360656h185.239082a20.983607 20.983607 0 1 0 0-41.967213H738.622951l-32.713443-0.117509c0.772197 0 1.405902 0.046164 2.173902 0.134296-111.124984-12.665705-199.050492-42.852721-276.622689-69.489312-116.706623-40.070295-208.887607-71.721967-293.350819-0.700852a20.97941 20.97941 0 0 0-2.555804 29.561704 20.975213 20.975213 0 0 0 29.561705 2.56zM982.032787 461.962492h-197.245902c-1.443672-0.016787-164.759082-2.618754-248.638951-86.50282-105.140459-105.148852-230.849049-38.450361-322.635541 10.248394l-9.287344 4.922754C162.513836 412.68459 89.385967 423.868852 51.279738 423.868852l-0.877115 41.967214h0.877115a20.983607 20.983607 0 0 0 0-41.967214h-0.877115v41.967214c45.01823 0 125.620459-12.820984 173.442098-38.10623l9.341902-4.947934c89.10059-47.276066 190.086295-100.855607 273.290492-17.647213 96.121705 96.125902 270.743082 98.732066 278.133508 98.799213h197.426361a20.992 20.992 0 0 0-0.004197-41.97141zM965.711738 582.995934H689.647213c-0.528787 0-1.057574 0.020984-1.586361 0.062951-4.931148 0.377705-121.616787 9.76577-195.348983 62.992787-101.245902 73.073311-202.705836 10.852721-230.265705-16.707147-41.816131-41.820328-101.417967-41.820328-144.937967-41.820328H59.67318a20.983607 20.983607 0 1 0 0 41.967213H117.508197c40.187803 0 85.73482 0 115.258754 29.523934 36.578623 36.578623 158.98859 111.657967 284.504131 21.063345 64.239213-46.369574 172.867148-55.081967 173.958295-55.170099a18.230557 18.230557 0 0 1-1.586361 0.067148h276.060328c11.595541 0 20.983607-9.392262 20.983607-20.983607a20.983607 20.983607 0 0 0-20.975213-20.996197z" fill="#6E6E96" p-id="12991"></path><path d="M397.744262 527.469115m-73.207606 0a73.207607 73.207607 0 1 0 146.415213 0 73.207607 73.207607 0 1 0-146.415213 0Z" fill="#E2E2F0" p-id="12992"></path><path d="M397.744262 475.245115c28.797902 0 52.224 23.426098 52.224 52.219803s-23.430295 52.219803-52.224 52.219803c-28.793705 0-52.224-23.426098-52.224-52.219803s23.426098-52.219803 52.224-52.219803z m-94.191213 52.224c0 51.94282 42.25259 94.191213 94.191213 94.191213s94.191213-42.248393 94.191213-94.191213c0-51.934426-42.25259-94.18282-94.191213-94.18282-51.938623-0.008393-94.191213 42.244197-94.191213 94.18282zM192.684066 864.944262h643.600786c11.591344 0 20.983607-9.392262 20.983607-20.983606s-9.392262-20.983607-20.983607-20.983607H192.684066a20.983607 20.983607 0 1 0 0 41.967213z" fill="#6E6E96" p-id="12993"></path><path d="M203.540984 519.69259m-19.586099 0a19.586098 19.586098 0 1 0 39.172197 0 19.586098 19.586098 0 1 0-39.172197 0Z" fill="#6E6E96" p-id="12994"></path><path d="M514.098361 729.528656a13.987672 13.987672 0 1 0 0 27.971147 13.987672 13.987672 0 0 0 0-27.971147z m54.557377-167.868853a23.78282 23.78282 0 1 0-0.004197-47.561442 23.78282 23.78282 0 0 0 0.004197 47.561442z m120.303213 195.848394a23.78282 23.78282 0 1 0 0-47.561443 23.78282 23.78282 0 0 0 0 47.561443z m78.344393-405.684459a26.577836 26.577836 0 1 0-0.004196 53.159869 26.577836 26.577836 0 0 0 0.004196-53.159869z m-509.204983-92.327869a15.389377 15.389377 0 1 0 0 30.782951 15.389377 15.389377 0 0 0 0-30.782951zM507.803279 37.770492C248.210885 37.770492 37.770492 248.210885 37.770492 507.803279c0 259.588197 210.440393 470.032787 470.032787 470.032787 259.588197 0 470.032787-210.44459 470.032787-470.032787C977.836066 248.210885 767.391475 37.770492 507.803279 37.770492zM90.590426 481.628328a392.032525 392.032525 0 0 1-0.360918-16.207738c0-6.177574 0.159475-12.317377 0.444853-18.423606-0.004197 0.29377-0.348328 25.004066-0.083935 34.631344z m724.320525 175.842623a39.188984 39.188984 0 0 0-16.942164-3.873574 39.365246 39.365246 0 0 0-39.369443 39.365246 39.214164 39.214164 0 0 0 11.301771 27.585049C698.829639 801.812984 594.44459 853.193443 478.006557 853.193443c-80.660984 0-155.559869-24.634754-217.608393-66.774033a28.537705 28.537705 0 1 0-31.676853-28.357246c0 1.611541 0.167869 3.185311 0.423869 4.721311-78.772459-65.997639-130.920918-162.702689-138.04695-271.691541 0.004197 0 127.106098-21.856525 219.459147-75.620721 92.357246-53.764197 161.57377 6.295082 237.114754 60.852459 75.536787 54.55318 299.906098 54.557377 312.580197 54.557377a385.044984 385.044984 0 0 1-45.341377 126.589902zM608.52459 444.852459c-50.637639-50.641836-139.561967-126.082098-251.803279-100.721311-112.232918 25.35659-266.030164 102.828066-266.04695 102.836459C100.310033 241.37023 270.029639 77.639344 478.006557 77.639344c214.158689 0 387.777049 173.614164 387.77705 387.777049 0 5.048656-0.125902 10.067934-0.314755 15.070427v-0.004197S659.16223 495.494295 608.52459 444.852459z m-11.893508-283.278689a18.184393 18.184393 0 1 0 0 36.368787 18.184393 18.184393 0 0 0 0-36.368787z" fill="#6E6E96" opacity=".15" p-id="12995"></path></svg>