<?xml version="1.0" standalone="no"?><!DOCTYPE svg PUBLIC "-//W3C//DTD SVG 1.1//EN" "http://www.w3.org/Graphics/SVG/1.1/DTD/svg11.dtd"><svg t="1752900446460" class="icon" viewBox="0 0 1024 1024" version="1.1" xmlns="http://www.w3.org/2000/svg" p-id="9784" xmlns:xlink="http://www.w3.org/1999/xlink" width="200" height="200"><path d="M782.99 725.49c51.41 55.99 37.27 152.64 37.27 152.64S722.75 884 671.34 828c-51.41-55.99-68.1-124.33-37.27-152.64 30.84-28.3 97.51-5.86 148.92 50.13z" fill="#FFDC2E" p-id="9785"></path><path d="M279.78 532.24S171.99 658.79 301.77 869.2c49.12 79.64 155 158.43 173.56 149.63 45.28-21.49-28.73-127.59 70.49-216.1L279.78 532.24zM515.63 315.68s135.26-96.62 333.86 50.6C924.65 422 994.15 534.21 983.8 551.95c-25.27 43.29-124.68-39.49-221.31 51.84L515.63 315.68z" fill="#F24040" p-id="9786"></path><path d="M684.66 493.92c71.47 77.84 85.08 121.71 94.15 191.25-0.35 0.4-154.55 141.99-154.74 142.08-68.9-14.45-111.21-31.04-183.22-109.47-118.03-128.52-174.74-340.03-127.43-383.46s253.22 31.07 371.24 159.6z" fill="#B8B8C4" p-id="9787"></path><path d="M638.85 298.39c113.38 123.48 134.97 193.07 149.36 303.4-0.55 0.64-245.19 225.26-245.49 225.4-109.3-22.92-176.42-49.24-290.66-173.66C64.84 449.63-25.13 114.1 49.92 45.19s401.71 49.3 588.93 253.2z" fill="#DEDDE8" p-id="9788"></path><path d="M274.19 58.66C171.66 21.34 84.34 13.59 49.92 45.19s-34.13 119.27-5.67 224.6L274.19 58.66z" fill="#F24040" p-id="9789"></path><path d="M190.34214 454.131643a172.19 172.19 0 1 0 253.671985-232.912233 172.19 172.19 0 1 0-253.671985 232.912233Z" fill="#384563" p-id="9790"></path><path d="M208.034346 437.141034a148.23 148.23 0 1 0 218.37388-200.502818 148.23 148.23 0 1 0-218.37388 200.502818Z" fill="#589AC6" p-id="9791"></path><path d="M571.123661 652.988654a206.18 31.21 47.443 1 0 45.978876-42.216103 206.18 31.21 47.443 1 0-45.978876 42.216103Z" fill="#F24040" p-id="9792"></path></svg>